<svg xmlns="http://www.w3.org/2000/svg" viewBox="0 0 200 200" fill="none" role="img" aria-label="Living Terrain">
  <g stroke="currentColor" stroke-width="2.4" stroke-linecap="round" stroke-linejoin="round" fill="none">
    <!-- enclosing circle, open at top -->
    <path d="M100 18 A82 82 0 1 0 100 182 A82 82 0 0 0 100 18" opacity="0"/>
    <path d="M118 22 A82 82 0 1 1 82 22"/>
    <!-- horizon line -->
    <line x1="40" y1="112" x2="160" y2="112" opacity="0.55"/>
    <!-- trunk -->
    <path d="M100 112 C99 96 100 84 100 70"/>
    <!-- main canopy branches -->
    <path d="M100 78 C88 70 78 66 70 58"/>
    <path d="M100 74 C112 66 122 62 130 54"/>
    <path d="M100 84 C90 80 82 78 74 72"/>
    <path d="M100 82 C110 78 118 76 126 70"/>
    <path d="M100 70 C97 62 96 56 96 50"/>
    <path d="M100 70 C103 62 104 56 106 50"/>
    <!-- canopy leaf dots -->
    <g stroke-width="0" fill="currentColor">
      <circle cx="70" cy="56" r="3.2"/><circle cx="82" cy="48" r="3.2"/>
      <circle cx="96" cy="46" r="3.2"/><circle cx="108" cy="47" r="3.2"/>
      <circle cx="122" cy="50" r="3.2"/><circle cx="132" cy="54" r="3.2"/>
      <circle cx="64" cy="66" r="2.6"/><circle cx="138" cy="64" r="2.6"/>
      <circle cx="88" cy="40" r="2.6"/><circle cx="114" cy="40" r="2.6"/>
      <circle cx="101" cy="38" r="2.6"/>
    </g>
    <!-- roots mirroring the canopy -->
    <path d="M100 112 C90 122 82 128 74 138"/>
    <path d="M100 112 C110 122 118 128 126 138"/>
    <path d="M100 112 C99 126 98 136 96 148"/>
    <path d="M100 112 C101 126 102 136 104 148"/>
    <path d="M74 138 C70 143 66 146 62 150"/>
    <path d="M126 138 C130 143 134 146 138 150"/>
    <path d="M96 148 C94 153 92 156 90 160"/>
    <path d="M104 148 C106 153 108 156 110 160"/>
  </g>
</svg>
